<svg width="36" height="34" viewBox="0 0 36 34" fill="none" xmlns="http://www.w3.org/2000/svg">
<path fill-rule="evenodd" clip-rule="evenodd" d="M12.375 0.466005C10.0183 1.54414 9.28215 2.75633 9.07965 5.89087L8.89515 8.75067L11.7603 8.75555C15.7216 8.76221 18 9.18698 18 9.91847C18 10.4058 16.6612 10.5261 11.2356 10.5261C1.01655 10.5261 0 11.27 0 18.7455C0 24.6973 1.51515 26.5051 6.5025 26.5051H9V22.7531C9 16.2772 9.71145 15.7113 17.3155 16.1396L22.4356 16.4281L23.818 15.0646C25.1905 13.7104 25.2 13.6695 25.1982 8.89581C25.1964 3.69864 24.5741 1.85573 22.4393 0.72877C20.8805 -0.0937038 13.9923 -0.273467 12.375 0.466005ZM13.7155 4.14384C14.5926 5.00892 14.4607 6.0369 13.3875 6.70358C12.4699 7.2735 11.1101 6.63922 10.89 5.53889C10.7523 4.84913 11.9043 3.42434 12.6 3.42434C12.8119 3.42434 13.3141 3.74836 13.7155 4.14384ZM27 11.448C27 15.2954 26.9415 15.5346 25.704 16.7553L24.408 18.0331L18.9864 17.7646L13.5648 17.4956L12.1824 18.8592C10.809 20.2138 10.8 20.2547 10.8018 25.0284C10.8041 32.2362 11.8377 33.5177 17.9834 33.9331C24.2577 34.3574 26.6121 32.8057 26.9194 28.0444L27.1049 25.1735L24.9147 25.1695C21.0222 25.1629 18 24.6524 18 24.0022C18 23.5193 19.3595 23.3981 24.7644 23.3981C34.9834 23.3981 36 22.6542 36 15.1787C36 9.22693 34.4849 7.41909 29.4975 7.41909H27V11.448ZM24.732 27.5935C25.8043 28.8678 24.3252 30.8221 22.7421 30.2229C21.105 29.6033 21.6382 26.949 23.4 26.949C23.8342 26.949 24.4336 27.2388 24.732 27.5935Z" fill="#E3E7B4"/>
</svg>
