<svg width="29" height="29" viewBox="0 0 29 29" fill="none" xmlns="http://www.w3.org/2000/svg">
<path fill-rule="evenodd" clip-rule="evenodd" d="M0.789 0.469866C0.407 0.850866 0.0949998 3.78787 0.0949998 6.99687V12.8299H6.564C11.903 12.8299 12.932 12.5679 12.457 11.3299C12.14 10.5049 11.424 9.82987 10.866 9.82987C10.294 9.82987 10.411 9.15487 11.133 8.28387C12.261 6.92487 12.882 7.19187 16.258 10.4889L20.1 14.2409L16.419 18.0099C13.562 20.9359 12.438 21.5289 11.392 20.6609C10.274 19.7339 10.33 19.2269 11.725 17.6869C13.346 15.8949 13.169 15.8299 6.702 15.8299H0L0.297 22.0799L0.595 28.3299H14.595H28.595V14.3299V0.329866L15.039 0.052866C7.583 -0.099134 1.17 0.0878658 0.789 0.469866Z" fill="#E3E7B4"/>
</svg>
